<?xml version="1.0" ?>
<!-- Uploaded to: SVG Repo, www.svgrepo.com, Generator: SVG Repo Mixer Tools -->
<svg width="800px" height="800px" viewBox="0 0 32 32" xmlns="http://www.w3.org/2000/svg">
<defs>
<style>.cls-1{fill:#ff64c8;}.cls-2{fill:#5233ff;}</style>
</defs>
<title/>
<g data-name="Layer 2" id="Layer_2">
<path class="cls-1" d="M30.87,14.23,26,22.67V8l3.77,2.18A3,3,0,0,1,30.87,14.23Z"/>
<path class="cls-1" d="M6,8.26V22.34l-4.6-8a3,3,0,0,1,1.1-4.1Z"/>
<path class="cls-2" d="M21,4H11A3,3,0,0,0,8,7V25a3,3,0,0,0,3,3H21a3,3,0,0,0,3-3V7A3,3,0,0,0,21,4ZM13,8a1,1,0,1,1-1,1A1,1,0,0,1,13,8Zm6,16a1,1,0,1,1,1-1A1,1,0,0,1,19,24Zm-3-4a4,4,0,1,1,4-4A4,4,0,0,1,16,20Z"/>
<circle class="cls-1" cx="16" cy="16" r="2"/>
</g>
</svg>